<svg id="svg" xmlns="http://www.w3.org/2000/svg" xmlns:xlink="http://www.w3.org/1999/xlink" width="400" height="79.16666666666667" viewBox="0, 0, 400,79.16666666666667"><g id="svgg"><path id="path0" d="M251.667 18.229 L 251.667 21.458 258.854 21.458 L 266.042 21.458 266.042 26.875 L 266.042 32.292 258.854 32.292 L 251.667 32.292 251.671 35.677 L 251.675 39.063 257.870 51.250 L 264.065 63.438 268.283 63.494 C 270.602 63.525,272.498 63.478,272.496 63.390 C 272.493 63.301,269.702 57.745,266.292 51.042 L 260.093 38.854 266.297 38.799 L 272.500 38.744 272.500 26.872 L 272.500 15.000 262.083 15.000 L 251.667 15.000 251.667 18.229 M5.417 19.747 L 5.417 24.285 12.135 26.627 C 15.831 27.915,18.924 28.966,19.010 28.963 C 19.096 28.961,19.167 26.952,19.167 24.500 L 19.167 20.041 18.594 19.834 C 8.006 16.014,5.743 15.208,5.595 15.208 C 5.497 15.208,5.417 17.251,5.417 19.747 M30.000 39.375 L 30.000 63.542 34.167 63.542 L 38.333 63.542 38.333 39.375 L 38.333 15.208 34.167 15.208 L 30.000 15.208 30.000 39.375 M68.544 15.469 C 68.545 15.612,69.696 20.135,71.103 25.521 L 73.660 35.313 67.976 35.368 L 62.292 35.423 62.292 38.753 L 62.292 42.083 68.839 42.083 L 75.387 42.083 75.698 43.177 C 75.869 43.779,77.005 48.115,78.223 52.813 C 79.440 57.510,80.575 61.846,80.745 62.448 L 81.053 63.542 85.214 63.542 C 88.083 63.542,89.375 63.471,89.375 63.314 C 89.375 63.098,77.808 18.593,77.157 16.302 L 76.845 15.208 72.694 15.208 C 69.510 15.208,68.542 15.269,68.544 15.469 M105.208 18.542 L 105.208 21.875 123.333 21.875 L 141.458 21.875 141.458 18.542 L 141.458 15.208 123.333 15.208 L 105.208 15.208 105.208 18.542 M171.807 16.510 C 171.415 17.227,168.582 22.683,165.513 28.635 L 159.933 39.458 161.110 41.760 C 161.757 43.027,164.563 48.422,167.346 53.750 L 172.405 63.438 176.619 63.494 C 178.937 63.525,180.832 63.478,180.830 63.390 C 180.829 63.301,178.038 57.882,174.628 51.346 L 168.429 39.462 174.625 27.492 C 178.032 20.908,180.823 15.451,180.827 15.365 C 180.830 15.279,178.963 15.208,176.677 15.208 L 172.520 15.208 171.807 16.510 M196.458 18.542 L 196.458 21.875 214.583 21.875 L 232.708 21.875 232.708 18.542 L 232.708 15.208 214.583 15.208 L 196.458 15.208 196.458 18.542 M300.349 16.510 C 299.957 17.227,297.174 22.594,294.164 28.438 C 291.155 34.281,288.602 39.178,288.491 39.318 C 288.350 39.498,290.150 43.143,294.509 51.506 L 300.729 63.438 304.972 63.494 C 308.959 63.547,309.206 63.528,309.074 63.181 C 308.964 62.895,300.902 47.362,297.469 40.824 L 296.863 39.669 303.013 27.774 C 306.395 21.231,309.220 15.727,309.291 15.543 C 309.406 15.242,308.994 15.208,305.241 15.208 L 301.062 15.208 300.349 16.510 M345.208 35.208 L 345.208 55.208 335.313 55.208 L 325.417 55.208 325.417 59.375 L 325.417 63.542 339.479 63.542 L 353.542 63.542 353.542 39.375 L 353.542 15.208 349.375 15.208 L 345.208 15.208 345.208 35.208 M370.621 15.365 C 370.619 15.451,374.721 26.324,379.736 39.528 L 388.854 63.535 393.073 63.538 C 395.393 63.540,397.294 63.471,397.296 63.385 C 397.299 63.299,393.244 52.425,388.286 39.219 L 379.271 15.210 374.948 15.209 C 372.570 15.209,370.623 15.279,370.621 15.365 M196.458 38.750 L 196.458 42.083 210.521 42.083 L 224.583 42.083 224.583 38.750 L 224.583 35.417 210.521 35.417 L 196.458 35.417 196.458 38.750 M105.208 60.208 L 105.208 63.542 123.333 63.542 L 141.458 63.542 141.458 60.208 L 141.458 56.875 123.333 56.875 L 105.208 56.875 105.208 60.208 M196.458 60.208 L 196.458 63.542 214.583 63.542 L 232.708 63.542 232.708 60.208 L 232.708 56.875 214.583 56.875 L 196.458 56.875 196.458 60.208 " stroke="none" fill="#ffffff" fill-rule="evenodd"></path></g></svg>
