<svg xmlns="http://www.w3.org/2000/svg" viewBox="0 0 568 414" width="568" height="414">
	<style>
		tspan { white-space:pre }
		.shp0 { fill: #e6e6e6 } 
		.shp1 { fill: #f2f2f2 } 
		.shp2 { fill: #cccccc } 
		.shp3 { fill: #3f3d56 } 
		.shp4 { fill: #2f2e41 } 
		.shp5 { fill: #ffb8b8 } 
		.shp6 { fill: #00bfa6 } 
		.shp7 { fill: #ffffff } 
		.shp8 { fill: #ff6584 } 
	</style>
	<g id="Libreria">
		<path id="Layer" class="shp0" d="M329.56 129.42C329.87 126.1 330.32 122.8 330.89 119.51C331.47 116.23 332.19 112.97 333.03 109.75C333.88 106.52 334.85 103.34 335.96 100.19C337.07 97.05 338.3 93.95 339.66 90.91C341.18 87.51 342.86 84.19 344.68 80.94C344.77 80.78 344.8 80.58 344.74 80.39C344.69 80.2 344.57 80.05 344.4 79.95C344.24 79.85 344.04 79.82 343.85 79.87C343.66 79.91 343.5 80.03 343.4 80.19C341.74 83.14 340.21 86.16 338.8 89.23C337.39 92.31 336.11 95.44 334.95 98.62C333.8 101.8 332.78 105.03 331.89 108.29C331 111.55 330.25 114.85 329.63 118.18C328.94 121.9 328.42 125.65 328.08 129.42C327.99 130.37 329.48 130.37 329.56 129.42L329.56 129.42Z" />
		<path id="Layer" class="shp0" d="M348.28 83.33C343.08 83.33 338.87 79.12 338.87 73.91C338.87 68.71 343.08 64.5 348.28 64.5C353.49 64.5 357.7 68.71 357.7 73.91C357.7 79.12 353.49 83.33 348.28 83.33Z" />
		<path id="Layer" class="shp0" d="M330.53 129.67C330.73 127.52 331.01 125.38 331.39 123.25C331.77 121.12 332.23 119 332.78 116.91C333.32 114.82 333.96 112.75 334.68 110.71C335.39 108.67 336.2 106.66 337.08 104.68C338.06 102.48 339.15 100.33 340.33 98.22C340.39 98.11 340.41 97.98 340.37 97.86C340.34 97.74 340.26 97.64 340.15 97.58C340.04 97.51 339.92 97.5 339.8 97.53C339.67 97.55 339.57 97.63 339.5 97.74C338.43 99.65 337.43 101.61 336.52 103.6C335.6 105.6 334.77 107.63 334.02 109.69C333.28 111.75 332.61 113.85 332.04 115.96C331.46 118.08 330.97 120.22 330.57 122.38C330.12 124.79 329.79 127.22 329.56 129.67C329.5 130.29 330.47 130.29 330.53 129.67L330.53 129.67Z" />
		<path id="Layer" class="shp0" d="M342.67 99.77C339.29 99.77 336.56 97.04 336.56 93.66C336.56 90.28 339.29 87.55 342.67 87.55C346.05 87.55 348.78 90.28 348.78 93.66C348.78 97.04 346.05 99.77 342.67 99.77Z" />
		<path id="Layer" class="shp0" d="M329.31 129.1C328.14 127.28 327.05 125.41 326.04 123.5C325.02 121.59 324.09 119.64 323.23 117.65C322.38 115.66 321.61 113.64 320.92 111.59C320.23 109.54 319.62 107.46 319.11 105.36C318.53 103.02 318.06 100.65 317.7 98.27C317.68 98.14 317.61 98.03 317.51 97.96C317.41 97.88 317.28 97.85 317.16 97.87C317.03 97.88 316.92 97.95 316.84 98.05C316.77 98.15 316.73 98.27 316.74 98.39C317.07 100.56 317.49 102.72 318 104.85C318.5 106.99 319.1 109.1 319.78 111.19C320.45 113.28 321.22 115.33 322.07 117.36C322.91 119.38 323.85 121.37 324.86 123.32C325.99 125.5 327.22 127.62 328.55 129.69C328.88 130.21 329.64 129.62 329.31 129.1Z" />
		<path id="Layer" class="shp0" d="M316.74 99.34C313.36 99.34 310.63 96.61 310.63 93.23C310.63 89.86 313.36 87.13 316.74 87.13C320.11 87.13 322.84 89.86 322.84 93.23C322.84 96.61 320.11 99.34 316.74 99.34Z" />
		<path id="Layer" class="shp1" d="M310.56 134.5L310.56 122.5C310.56 121.91 310.68 121.32 310.9 120.78C311.13 120.23 311.46 119.74 311.88 119.32C312.3 118.9 312.79 118.57 313.34 118.34C313.88 118.12 314.47 118 315.06 118L343.06 118C343.65 118 344.23 118.12 344.78 118.34C345.33 118.57 345.82 118.9 346.24 119.32C346.66 119.74 346.99 120.23 347.22 120.78C347.44 121.32 347.56 121.91 347.56 122.5L347.56 134.5C347.56 135.09 347.44 135.68 347.22 136.22C346.99 136.77 346.66 137.26 346.24 137.68C345.82 138.1 345.33 138.43 344.78 138.66C344.23 138.88 343.65 139 343.06 139L315.06 139C314.47 139 313.88 138.88 313.34 138.66C312.79 138.43 312.3 138.1 311.88 137.68C311.46 137.26 311.13 136.77 310.9 136.22C310.68 135.68 310.56 135.09 310.56 134.5Z" />
		<path id="Layer" class="shp1" d="M342.06 58L330.06 58C329.47 58 328.88 57.88 328.34 57.66C327.79 57.43 327.3 57.1 326.88 56.68C326.46 56.26 326.13 55.77 325.9 55.22C325.68 54.68 325.56 54.09 325.56 53.5L325.56 4.5C325.56 3.91 325.68 3.32 325.9 2.78C326.13 2.23 326.46 1.74 326.88 1.32C327.3 0.9 327.79 0.57 328.34 0.34C328.88 0.12 329.47 0 330.06 0L342.06 0C342.65 0 343.23 0.12 343.78 0.34C344.33 0.57 344.82 0.9 345.24 1.32C345.66 1.74 345.99 2.23 346.22 2.78C346.44 3.32 346.56 3.91 346.56 4.5L346.56 53.5C346.56 54.09 346.44 54.68 346.22 55.22C345.99 55.77 345.66 56.26 345.24 56.68C344.82 57.1 344.33 57.43 343.78 57.66C343.23 57.88 342.65 58 342.06 58L342.06 58Z" />
		<path id="Layer" class="shp2" d="M326.06 9.5L346.06 9.5L346.06 13.5L326.06 13.5L326.06 9.5Z" />
		<path id="Layer" class="shp2" d="M326.06 40.5L346.06 40.5L346.06 44.5L326.06 44.5L326.06 40.5Z" />
		<path id="Layer" class="shp1" d="M372.06 58L360.06 58C359.47 58 358.88 57.88 358.34 57.66C357.79 57.43 357.3 57.1 356.88 56.68C356.46 56.26 356.13 55.77 355.9 55.22C355.68 54.68 355.56 54.09 355.56 53.5L355.56 4.5C355.56 3.91 355.68 3.32 355.9 2.78C356.13 2.23 356.46 1.74 356.88 1.32C357.3 0.9 357.79 0.57 358.34 0.34C358.88 0.12 359.47 0 360.06 0L372.06 0C372.65 0 373.23 0.12 373.78 0.34C374.33 0.57 374.82 0.9 375.24 1.32C375.66 1.74 375.99 2.23 376.22 2.78C376.44 3.32 376.56 3.91 376.56 4.5L376.56 53.5C376.56 54.09 376.44 54.68 376.22 55.22C375.99 55.77 375.66 56.26 375.24 56.68C374.82 57.1 374.33 57.43 373.78 57.66C373.23 57.88 372.65 58 372.06 58L372.06 58Z" />
		<path id="Layer" class="shp2" d="M356.06 9.5L376.06 9.5L376.06 13.5L356.06 13.5L356.06 9.5Z" />
		<path id="Layer" class="shp2" d="M356.06 40.5L376.06 40.5L376.06 44.5L356.06 44.5L356.06 40.5Z" />
		<path id="Layer" class="shp1" d="M402.06 58L390.06 58C389.47 58 388.88 57.88 388.34 57.66C387.79 57.43 387.3 57.1 386.88 56.68C386.46 56.26 386.13 55.77 385.9 55.22C385.68 54.68 385.56 54.09 385.56 53.5L385.56 4.5C385.56 3.91 385.68 3.32 385.9 2.78C386.13 2.23 386.46 1.74 386.88 1.32C387.3 0.9 387.79 0.57 388.34 0.34C388.88 0.12 389.47 0 390.06 0L402.06 0C402.65 0 403.23 0.12 403.78 0.34C404.33 0.57 404.82 0.9 405.24 1.32C405.66 1.74 405.99 2.23 406.22 2.78C406.44 3.32 406.56 3.91 406.56 4.5L406.56 53.5C406.56 54.09 406.44 54.68 406.22 55.22C405.99 55.77 405.66 56.26 405.24 56.68C404.82 57.1 404.33 57.43 403.78 57.66C403.23 57.88 402.65 58 402.06 58L402.06 58Z" />
		<path id="Layer" class="shp2" d="M386.06 9.5L406.06 9.5L406.06 13.5L386.06 13.5L386.06 9.5Z" />
		<path id="Layer" class="shp2" d="M386.06 40.5L406.06 40.5L406.06 44.5L386.06 44.5L386.06 40.5Z" />
		<path id="Layer" class="shp1" d="M418.06 139L406.06 139C405.47 139 404.88 138.88 404.34 138.66C403.79 138.43 403.3 138.1 402.88 137.68C402.46 137.26 402.13 136.77 401.9 136.22C401.68 135.68 401.56 135.09 401.56 134.5L401.56 85.5C401.56 84.91 401.68 84.32 401.9 83.78C402.13 83.23 402.46 82.74 402.88 82.32C403.3 81.9 403.79 81.57 404.34 81.34C404.88 81.12 405.47 81 406.06 81L418.06 81C418.65 81 419.23 81.12 419.78 81.34C420.33 81.57 420.82 81.9 421.24 82.32C421.66 82.74 421.99 83.23 422.22 83.78C422.44 84.32 422.56 84.91 422.56 85.5L422.56 134.5C422.56 135.09 422.44 135.68 422.22 136.22C421.99 136.77 421.66 137.26 421.24 137.68C420.82 138.1 420.33 138.43 419.78 138.66C419.23 138.88 418.65 139 418.06 139L418.06 139Z" />
		<path id="Layer" class="shp2" d="M402.06 90.5L422.06 90.5L422.06 94.5L402.06 94.5L402.06 90.5Z" />
		<path id="Layer" class="shp2" d="M402.06 121.5L422.06 121.5L422.06 125.5L402.06 125.5L402.06 121.5Z" />
		<path id="Layer" class="shp1" d="M448.06 139L436.06 139C435.47 139 434.88 138.88 434.34 138.66C433.79 138.43 433.3 138.1 432.88 137.68C432.46 137.26 432.13 136.77 431.9 136.22C431.68 135.68 431.56 135.09 431.56 134.5L431.56 85.5C431.56 84.91 431.68 84.32 431.9 83.78C432.13 83.23 432.46 82.74 432.88 82.32C433.3 81.9 433.79 81.57 434.34 81.34C434.88 81.12 435.47 81 436.06 81L448.06 81C448.65 81 449.23 81.12 449.78 81.34C450.33 81.57 450.82 81.9 451.24 82.32C451.66 82.74 451.99 83.23 452.22 83.78C452.44 84.32 452.56 84.91 452.56 85.5L452.56 134.5C452.56 135.09 452.44 135.68 452.22 136.22C451.99 136.77 451.66 137.26 451.24 137.68C450.82 138.1 450.33 138.43 449.78 138.66C449.23 138.88 448.65 139 448.06 139L448.06 139Z" />
		<path id="Layer" class="shp2" d="M432.06 90.5L452.06 90.5L452.06 94.5L432.06 94.5L432.06 90.5Z" />
		<path id="Layer" class="shp2" d="M432.06 121.5L452.06 121.5L452.06 125.5L432.06 125.5L432.06 121.5Z" />
		<path id="Layer" class="shp1" d="M478.06 139L466.06 139C465.47 139 464.88 138.88 464.34 138.66C463.79 138.43 463.3 138.1 462.88 137.68C462.46 137.26 462.13 136.77 461.9 136.22C461.68 135.68 461.56 135.09 461.56 134.5L461.56 85.5C461.56 84.91 461.68 84.32 461.9 83.78C462.13 83.23 462.46 82.74 462.88 82.32C463.3 81.9 463.79 81.57 464.34 81.34C464.88 81.12 465.47 81 466.06 81L478.06 81C478.65 81 479.23 81.12 479.78 81.34C480.33 81.57 480.82 81.9 481.24 82.32C481.66 82.74 481.99 83.23 482.22 83.78C482.44 84.32 482.56 84.91 482.56 85.5L482.56 134.5C482.56 135.09 482.44 135.68 482.22 136.22C481.99 136.77 481.66 137.26 481.24 137.68C480.82 138.1 480.33 138.43 479.78 138.66C479.23 138.88 478.65 139 478.06 139L478.06 139Z" />
		<path id="Layer" class="shp2" d="M462.06 90.5L482.06 90.5L482.06 94.5L462.06 94.5L462.06 90.5Z" />
		<path id="Layer" class="shp2" d="M462.06 121.5L482.06 121.5L482.06 125.5L462.06 125.5L462.06 121.5Z" />
		<path id="Layer" class="shp1" d="M339.06 220L327.06 220C326.47 220 325.88 219.88 325.34 219.66C324.79 219.43 324.3 219.1 323.88 218.68C323.46 218.26 323.13 217.77 322.9 217.22C322.68 216.68 322.56 216.09 322.56 215.5L322.56 166.5C322.56 165.91 322.68 165.32 322.9 164.78C323.13 164.23 323.46 163.74 323.88 163.32C324.3 162.9 324.79 162.57 325.34 162.34C325.88 162.12 326.47 162 327.06 162L339.06 162C339.65 162 340.23 162.12 340.78 162.34C341.33 162.57 341.82 162.9 342.24 163.32C342.66 163.74 342.99 164.23 343.22 164.78C343.44 165.32 343.56 165.91 343.56 166.5L343.56 215.5C343.56 216.09 343.44 216.68 343.22 217.22C342.99 217.77 342.66 218.26 342.24 218.68C341.82 219.1 341.33 219.43 340.78 219.66C340.23 219.88 339.65 220 339.06 220L339.06 220Z" />
		<path id="Layer" class="shp2" d="M323.06 171.5L343.06 171.5L343.06 175.5L323.06 175.5L323.06 171.5Z" />
		<path id="Layer" class="shp2" d="M323.06 202.5L343.06 202.5L343.06 206.5L323.06 206.5L323.06 202.5Z" />
		<path id="Layer" class="shp1" d="M369.06 220L357.06 220C356.47 220 355.88 219.88 355.34 219.66C354.79 219.43 354.3 219.1 353.88 218.68C353.46 218.26 353.13 217.77 352.9 217.22C352.68 216.68 352.56 216.09 352.56 215.5L352.56 166.5C352.56 165.91 352.68 165.32 352.9 164.78C353.13 164.23 353.46 163.74 353.88 163.32C354.3 162.9 354.79 162.57 355.34 162.34C355.88 162.12 356.47 162 357.06 162L369.06 162C369.65 162 370.23 162.12 370.78 162.34C371.33 162.57 371.82 162.9 372.24 163.32C372.66 163.74 372.99 164.23 373.22 164.78C373.44 165.32 373.56 165.91 373.56 166.5L373.56 215.5C373.56 216.09 373.44 216.68 373.22 217.22C372.99 217.77 372.66 218.26 372.24 218.68C371.82 219.1 371.33 219.43 370.78 219.66C370.23 219.88 369.65 220 369.06 220L369.06 220Z" />
		<path id="Layer" class="shp2" d="M353.06 171.5L373.06 171.5L373.06 175.5L353.06 175.5L353.06 171.5Z" />
		<path id="Layer" class="shp2" d="M353.06 202.5L373.06 202.5L373.06 206.5L353.06 206.5L353.06 202.5Z" />
		<path id="Layer" class="shp1" d="M399.06 220L387.06 220C386.47 220 385.88 219.88 385.34 219.66C384.79 219.43 384.3 219.1 383.88 218.68C383.46 218.26 383.13 217.77 382.9 217.22C382.68 216.68 382.56 216.09 382.56 215.5L382.56 166.5C382.56 165.91 382.68 165.32 382.9 164.78C383.13 164.23 383.46 163.74 383.88 163.32C384.3 162.9 384.79 162.57 385.34 162.34C385.88 162.12 386.47 162 387.06 162L399.06 162C399.65 162 400.23 162.12 400.78 162.34C401.33 162.57 401.82 162.9 402.24 163.32C402.66 163.74 402.99 164.23 403.22 164.78C403.44 165.32 403.56 165.91 403.56 166.5L403.56 215.5C403.56 216.09 403.44 216.68 403.22 217.22C402.99 217.77 402.66 218.26 402.24 218.68C401.82 219.1 401.33 219.43 400.78 219.66C400.23 219.88 399.65 220 399.06 220L399.06 220Z" />
		<path id="Layer" class="shp2" d="M383.06 171.5L403.06 171.5L403.06 175.5L383.06 175.5L383.06 171.5Z" />
		<path id="Layer" class="shp2" d="M383.06 202.5L403.06 202.5L403.06 206.5L383.06 206.5L383.06 202.5Z" />
		<path id="Layer" class="shp1" d="M432.06 58L420.06 58C419.47 58 418.88 57.88 418.34 57.66C417.79 57.43 417.3 57.1 416.88 56.68C416.46 56.26 416.13 55.77 415.9 55.22C415.68 54.68 415.56 54.09 415.56 53.5L415.56 4.5C415.56 3.91 415.68 3.32 415.9 2.78C416.13 2.23 416.46 1.74 416.88 1.32C417.3 0.9 417.79 0.57 418.34 0.34C418.88 0.12 419.47 0 420.06 0L432.06 0C432.65 0 433.23 0.12 433.78 0.34C434.33 0.57 434.82 0.9 435.24 1.32C435.66 1.74 435.99 2.23 436.22 2.78C436.44 3.32 436.56 3.91 436.56 4.5L436.56 53.5C436.56 54.09 436.44 54.68 436.22 55.22C435.99 55.77 435.66 56.26 435.24 56.68C434.82 57.1 434.33 57.43 433.78 57.66C433.23 57.88 432.65 58 432.06 58L432.06 58Z" />
		<path id="Layer" class="shp2" d="M416.06 9.5L436.06 9.5L436.06 13.5L416.06 13.5L416.06 9.5Z" />
		<path id="Layer" class="shp2" d="M416.06 40.5L436.06 40.5L436.06 44.5L416.06 44.5L416.06 40.5Z" />
		<path id="Layer" class="shp1" d="M462.06 58L450.06 58C449.47 58 448.88 57.88 448.34 57.66C447.79 57.43 447.3 57.1 446.88 56.68C446.46 56.26 446.13 55.77 445.9 55.22C445.68 54.68 445.56 54.09 445.56 53.5L445.56 4.5C445.56 3.91 445.68 3.32 445.9 2.78C446.13 2.23 446.46 1.74 446.88 1.32C447.3 0.9 447.79 0.57 448.34 0.34C448.88 0.12 449.47 0 450.06 0L462.06 0C462.65 0 463.23 0.12 463.78 0.34C464.33 0.57 464.82 0.9 465.24 1.32C465.66 1.74 465.99 2.23 466.22 2.78C466.44 3.32 466.56 3.91 466.56 4.5L466.56 53.5C466.56 54.09 466.44 54.68 466.22 55.22C465.99 55.77 465.66 56.26 465.24 56.68C464.82 57.1 464.33 57.43 463.78 57.66C463.23 57.88 462.65 58 462.06 58L462.06 58Z" />
		<path id="Layer" class="shp2" d="M446.06 9.5L466.06 9.5L466.06 13.5L446.06 13.5L446.06 9.5Z" />
		<path id="Layer" class="shp2" d="M446.06 40.5L466.06 40.5L466.06 44.5L446.06 44.5L446.06 40.5Z" />
		<path id="Layer" class="shp1" d="M492.06 58L480.06 58C479.47 58 478.88 57.88 478.34 57.66C477.79 57.43 477.3 57.1 476.88 56.68C476.46 56.26 476.13 55.77 475.9 55.22C475.68 54.68 475.56 54.09 475.56 53.5L475.56 4.5C475.56 3.91 475.68 3.32 475.9 2.78C476.13 2.23 476.46 1.74 476.88 1.32C477.3 0.9 477.79 0.57 478.34 0.34C478.88 0.12 479.47 0 480.06 0L492.06 0C492.65 0 493.23 0.12 493.78 0.34C494.33 0.57 494.82 0.9 495.24 1.32C495.66 1.74 495.99 2.23 496.22 2.78C496.44 3.32 496.56 3.91 496.56 4.5L496.56 53.5C496.56 54.09 496.44 54.68 496.22 55.22C495.99 55.77 495.66 56.26 495.24 56.68C494.82 57.1 494.33 57.43 493.78 57.66C493.23 57.88 492.65 58 492.06 58L492.06 58Z" />
		<path id="Layer" class="shp2" d="M476.06 9.5L496.06 9.5L496.06 13.5L476.06 13.5L476.06 9.5Z" />
		<path id="Layer" class="shp2" d="M476.06 40.5L496.06 40.5L496.06 44.5L476.06 44.5L476.06 40.5Z" />
		<path id="Layer" class="shp1" d="M522.06 58L510.06 58C509.47 58 508.88 57.88 508.34 57.66C507.79 57.43 507.3 57.1 506.88 56.68C506.46 56.26 506.13 55.77 505.9 55.22C505.68 54.68 505.56 54.09 505.56 53.5L505.56 4.5C505.56 3.91 505.68 3.32 505.9 2.78C506.13 2.23 506.46 1.74 506.88 1.32C507.3 0.9 507.79 0.57 508.34 0.34C508.88 0.12 509.47 0 510.06 0L522.06 0C522.65 0 523.23 0.12 523.78 0.34C524.33 0.57 524.82 0.9 525.24 1.32C525.66 1.74 525.99 2.23 526.22 2.78C526.44 3.32 526.56 3.91 526.56 4.5L526.56 53.5C526.56 54.09 526.44 54.68 526.22 55.22C525.99 55.77 525.66 56.26 525.24 56.68C524.82 57.1 524.33 57.43 523.78 57.66C523.23 57.88 522.65 58 522.06 58L522.06 58Z" />
		<path id="Layer" class="shp2" d="M506.06 9.5L526.06 9.5L526.06 13.5L506.06 13.5L506.06 9.5Z" />
		<path id="Layer" class="shp2" d="M506.06 40.5L526.06 40.5L526.06 44.5L506.06 44.5L506.06 40.5Z" />
		<path id="Layer" class="shp2" d="M567 59.5L282 59.5C281.73 59.5 281.48 59.39 281.29 59.21C281.11 59.02 281 58.77 281 58.5C281 58.23 281.11 57.98 281.29 57.79C281.48 57.61 281.73 57.5 282 57.5L567 57.5C567.27 57.5 567.52 57.61 567.71 57.79C567.89 57.98 568 58.23 568 58.5C568 58.77 567.89 59.02 567.71 59.21C567.52 59.39 567.27 59.5 567 59.5Z" />
		<path id="Layer" class="shp2" d="M567 140.5L282 140.5C281.73 140.5 281.48 140.39 281.29 140.21C281.11 140.02 281 139.77 281 139.5C281 139.23 281.11 138.98 281.29 138.79C281.48 138.61 281.73 138.5 282 138.5L567 138.5C567.27 138.5 567.52 138.61 567.71 138.79C567.89 138.98 568 139.23 568 139.5C568 139.77 567.89 140.02 567.71 140.21C567.52 140.39 567.27 140.5 567 140.5Z" />
		<path id="Layer" class="shp2" d="M567 221.5L282 221.5C281.73 221.5 281.48 221.39 281.29 221.21C281.11 221.02 281 220.77 281 220.5C281 220.23 281.11 219.98 281.29 219.79C281.48 219.61 281.73 219.5 282 219.5L567 219.5C567.27 219.5 567.52 219.61 567.71 219.79C567.89 219.98 568 220.23 568 220.5C568 220.77 567.89 221.02 567.71 221.21C567.52 221.39 567.27 221.5 567 221.5Z" />
		<path id="Layer" class="shp0" d="M494.56 210.42C494.87 207.1 495.32 203.8 495.89 200.51C496.47 197.23 497.19 193.97 498.03 190.75C498.88 187.52 499.85 184.34 500.96 181.19C502.07 178.05 503.3 174.95 504.66 171.91C506.18 168.51 507.86 165.19 509.68 161.94C509.77 161.78 509.8 161.58 509.74 161.39C509.69 161.2 509.57 161.05 509.4 160.95C509.24 160.85 509.04 160.82 508.85 160.87C508.66 160.91 508.5 161.03 508.4 161.19C506.74 164.14 505.21 167.16 503.8 170.23C502.39 173.31 501.11 176.44 499.95 179.62C498.8 182.8 497.78 186.03 496.89 189.29C496 192.55 495.25 195.85 494.63 199.18C493.94 202.9 493.42 206.65 493.08 210.42C492.99 211.37 494.48 211.37 494.56 210.42L494.56 210.42Z" />
		<path id="Layer" class="shp0" d="M513.28 164.33C508.08 164.33 503.87 160.12 503.87 154.91C503.87 149.71 508.08 145.5 513.28 145.5C518.49 145.5 522.7 149.71 522.7 154.91C522.7 160.12 518.49 164.33 513.28 164.33Z" />
		<path id="Layer" class="shp0" d="M495.53 210.67C495.73 208.52 496.01 206.38 496.39 204.25C496.77 202.12 497.23 200 497.78 197.91C498.32 195.82 498.96 193.75 499.68 191.71C500.39 189.67 501.2 187.66 502.08 185.68C503.06 183.48 504.15 181.33 505.33 179.22C505.39 179.11 505.41 178.98 505.37 178.86C505.34 178.74 505.26 178.64 505.15 178.58C505.04 178.51 504.92 178.5 504.8 178.53C504.67 178.55 504.57 178.63 504.5 178.74C503.43 180.65 502.43 182.61 501.52 184.6C500.6 186.6 499.77 188.63 499.02 190.69C498.28 192.75 497.61 194.85 497.04 196.96C496.46 199.08 495.97 201.22 495.57 203.38C495.12 205.79 494.79 208.22 494.56 210.67C494.5 211.29 495.47 211.29 495.53 210.67L495.53 210.67Z" />
		<path id="Layer" class="shp0" d="M507.67 180.77C504.29 180.77 501.56 178.04 501.56 174.66C501.56 171.28 504.29 168.55 507.67 168.55C511.05 168.55 513.78 171.28 513.78 174.66C513.78 178.04 511.05 180.77 507.67 180.77Z" />
		<path id="Layer" class="shp0" d="M494.31 210.1C493.14 208.28 492.05 206.41 491.04 204.5C490.02 202.59 489.09 200.64 488.23 198.65C487.38 196.66 486.61 194.64 485.92 192.59C485.23 190.54 484.62 188.46 484.11 186.36C483.53 184.02 483.06 181.65 482.7 179.27C482.68 179.14 482.61 179.03 482.51 178.96C482.41 178.88 482.28 178.85 482.16 178.87C482.03 178.88 481.92 178.95 481.84 179.05C481.77 179.15 481.73 179.27 481.74 179.39C482.07 181.56 482.49 183.72 483 185.85C483.5 187.99 484.1 190.1 484.78 192.19C485.45 194.28 486.22 196.33 487.07 198.36C487.91 200.38 488.85 202.37 489.86 204.32C490.99 206.5 492.22 208.62 493.55 210.69C493.88 211.21 494.64 210.62 494.31 210.1Z" />
		<path id="Layer" class="shp0" d="M481.74 180.34C478.36 180.34 475.63 177.61 475.63 174.23C475.63 170.86 478.36 168.13 481.74 168.13C485.11 168.13 487.84 170.86 487.84 174.23C487.84 177.61 485.11 180.34 481.74 180.34Z" />
		<path id="Layer" class="shp1" d="M475.56 215.5L475.56 203.5C475.56 202.91 475.68 202.32 475.9 201.78C476.13 201.23 476.46 200.74 476.88 200.32C477.3 199.9 477.79 199.57 478.34 199.34C478.88 199.12 479.47 199 480.06 199L508.06 199C508.65 199 509.23 199.12 509.78 199.34C510.33 199.57 510.82 199.9 511.24 200.32C511.66 200.74 511.99 201.23 512.22 201.78C512.44 202.32 512.56 202.91 512.56 203.5L512.56 215.5C512.56 216.09 512.44 216.68 512.22 217.22C511.99 217.77 511.66 218.26 511.24 218.68C510.82 219.1 510.33 219.43 509.78 219.66C509.23 219.88 508.65 220 508.06 220L480.06 220C479.47 220 478.88 219.88 478.34 219.66C477.79 219.43 477.3 219.1 476.88 218.68C476.46 218.26 476.13 217.77 475.9 217.22C475.68 216.68 475.56 216.09 475.56 215.5Z" />
	</g>
	<g id="Uomo">
		<path id="Layer" class="shp3" d="M393 363.5L12 363.5C11.73 363.5 11.48 363.39 11.29 363.21C11.11 363.02 11 362.77 11 362.5C11 362.23 11.11 361.98 11.29 361.79C11.48 361.61 11.73 361.5 12 361.5L393 361.5C393.27 361.5 393.52 361.61 393.71 361.79C393.89 361.98 394 362.23 394 362.5C394 362.77 393.89 363.02 393.71 363.21C393.52 363.39 393.27 363.5 393 363.5Z" />
		<path id="Layer" class="shp4" d="M210.06 232.5C195.13 232.5 183.06 220.43 183.06 205.5C183.06 190.57 195.13 178.5 210.06 178.5C224.99 178.5 237.06 190.57 237.06 205.5C237.06 220.43 224.99 232.5 210.06 232.5Z" />
		<path id="Layer" class="shp5" d="M184.4 378.83L183.69 366.59L230.56 358L231.61 376.07L184.4 378.83L184.4 378.83Z" />
		<path id="Layer" class="shp4" d="M186.68 357.64L188.06 381.24L173.19 382.11L170.95 343.65L170.95 343.65C172.9 343.53 174.85 343.81 176.7 344.45C178.55 345.09 180.25 346.09 181.71 347.39C183.17 348.69 184.36 350.26 185.21 352.02C186.06 353.78 186.56 355.69 186.68 357.64L186.68 357.64Z" />
		<path id="Layer" class="shp5" d="M204.79 378.71L197 388.19L156.77 362.67L168.26 348.69L204.79 378.71L204.79 378.71Z" />
		<path id="Layer" class="shp4" d="M188.74 392.73L203.75 374.46L215.25 383.91L190.79 413.68L190.79 413.68C189.28 412.44 188.02 410.91 187.1 409.19C186.18 407.46 185.61 405.57 185.42 403.63C185.23 401.68 185.43 399.72 186 397.85C186.56 395.98 187.5 394.24 188.74 392.73L188.74 392.73Z" />
		<path id="Layer" class="shp4" d="M182.39 334.67L177.07 359.75C176.94 360.33 176.95 360.92 177.09 361.5C177.22 362.07 177.48 362.61 177.85 363.07C178.22 363.53 178.68 363.91 179.21 364.17C179.74 364.43 180.33 364.57 180.92 364.58L233.21 365.42C233.8 365.43 234.39 365.31 234.92 365.07C235.46 364.83 235.94 364.47 236.32 364.02C236.7 363.57 236.98 363.04 237.14 362.47C237.29 361.9 237.32 361.31 237.22 360.73L232.64 334.8C232.56 334.35 232.4 333.9 232.17 333.5C231.93 333.1 231.63 332.74 231.27 332.44C230.92 332.14 230.51 331.9 230.07 331.74C229.63 331.58 229.17 331.5 228.7 331.5L186.3 331.5C185.84 331.5 185.39 331.58 184.96 331.73C184.54 331.88 184.14 332.11 183.78 332.39C183.43 332.68 183.13 333.02 182.89 333.41C182.65 333.8 182.48 334.22 182.39 334.67Z" />
		<path id="Layer" class="shp4" d="M191.06 343.5C191.06 343.5 140.06 311.5 130.06 328.5C125.06 337 127.56 345.25 131.31 351.38C132.17 352.76 133.14 354.08 134.19 355.33C135.24 356.58 136.38 357.76 137.59 358.85C138.81 359.93 140.1 360.94 141.46 361.84C142.82 362.75 144.24 363.56 145.71 364.27L187.06 384.5L202.06 368.5L192.06 359.5L191.06 343.5Z" />
		<path id="Layer" class="shp4" d="M217.06 338.5C217.06 338.5 283.06 319.5 270.06 355.5C257.06 391.5 208.06 377.5 208.06 377.5L203.06 362.5L220.06 350.5L217.06 338.5Z" />
		<path id="Layer" class="shp5" d="M210.4 236.23C196.82 236.23 185.84 225.25 185.84 211.67C185.84 198.08 196.82 187.1 210.4 187.1C223.98 187.1 234.96 198.08 234.96 211.67C234.96 225.25 223.98 236.23 210.4 236.23Z" />
		<path id="Layer" class="shp2" d="M211.68 342.47C209.14 342.43 206.59 342.32 204.05 342.13C201.5 341.95 198.97 341.69 196.44 341.35C193.91 341.02 191.4 340.61 188.89 340.14C186.39 339.66 183.9 339.11 181.43 338.48L181.13 338.4L167.43 275.36C166.82 272.61 166.71 269.77 167.11 266.99C167.52 264.2 168.42 261.52 169.79 259.05C171.15 256.59 172.95 254.4 175.1 252.58C177.25 250.76 179.71 249.35 182.36 248.41C186.46 246.94 190.67 245.81 194.95 245.02C199.24 244.23 203.57 243.79 207.93 243.7C212.28 243.62 216.63 243.88 220.94 244.5C225.26 245.12 229.51 246.08 233.66 247.39L233.66 247.39C236.45 248.29 239.04 249.7 241.31 251.55C243.58 253.4 245.48 255.66 246.91 258.21C248.35 260.76 249.3 263.56 249.7 266.46C250.11 269.36 249.97 272.31 249.3 275.15L233.99 338.35L233.77 338.45C227.41 341.47 219.46 342.47 211.68 342.47Z" />
		<path id="Layer" class="shp5" d="M193.27 347.37C193.77 345.98 194.57 344.73 195.6 343.68C196.64 342.64 197.89 341.84 199.27 341.33C200.65 340.82 202.13 340.63 203.59 340.75C205.06 340.88 206.48 341.32 207.75 342.05L234.74 318.63L237.18 337.04L211.18 356.46C209.8 358.52 207.72 360 205.33 360.63C202.93 361.26 200.39 360.99 198.19 359.86C195.98 358.74 194.26 356.85 193.36 354.55C192.45 352.25 192.42 349.69 193.27 347.37Z" />
		<path id="Layer" class="shp2" d="M219.01 352.48C218.9 352.48 218.79 352.47 218.68 352.46C218.57 352.46 218.47 352.44 218.36 352.43C218.25 352.41 218.14 352.39 218.03 352.37C217.93 352.34 217.82 352.32 217.72 352.29C217.38 352.19 217.05 352.05 216.74 351.87C216.43 351.69 216.15 351.48 215.89 351.24C215.64 350.99 215.41 350.72 215.22 350.42C215.03 350.12 214.87 349.8 214.75 349.47L211.5 340.24C211.34 339.82 211.26 339.37 211.24 338.92C211.22 338.47 211.27 338.02 211.38 337.59C211.5 337.15 211.68 336.74 211.92 336.35C212.16 335.97 212.46 335.63 212.8 335.34L249.57 313.26L235.07 248.6L235.44 248.51C235.59 248.48 250.44 245.1 256.53 261.32C260.79 272.69 276.56 297.4 275.45 314.1C275.34 315.76 274.96 317.39 274.32 318.92C273.67 320.45 272.78 321.87 271.67 323.1C270.56 324.34 269.25 325.38 267.79 326.19C266.34 326.99 264.76 327.55 263.12 327.83L221.74 351.54C221.54 351.69 221.34 351.82 221.12 351.94C220.91 352.06 220.68 352.16 220.45 352.23C220.22 352.31 219.98 352.37 219.74 352.41C219.5 352.45 219.26 352.48 219.01 352.48Z" />
		<path id="Layer" class="shp5" d="M223.14 345.17C222.64 343.79 221.84 342.53 220.81 341.49C219.77 340.45 218.52 339.64 217.14 339.14C215.76 338.63 214.28 338.43 212.82 338.56C211.35 338.68 209.94 339.13 208.66 339.86L181.67 316.44L179.23 334.84L205.23 354.27C206.61 356.33 208.69 357.81 211.08 358.44C213.48 359.06 216.02 358.79 218.22 357.67C220.43 356.55 222.15 354.66 223.05 352.36C223.96 350.05 223.99 347.5 223.14 345.17L223.14 345.17Z" />
		<path id="Layer" class="shp2" d="M200.11 352.48C199.86 352.48 199.62 352.45 199.38 352.41C199.14 352.37 198.9 352.31 198.67 352.23C198.44 352.16 198.21 352.06 198 351.94C197.78 351.82 197.58 351.69 197.38 351.54L152.99 329.83C151.36 329.55 149.78 328.99 148.32 328.19C146.87 327.38 145.56 326.34 144.45 325.1C143.34 323.87 142.44 322.45 141.8 320.92C141.16 319.39 140.78 317.76 140.67 316.1C139.56 299.4 158.33 272.69 162.59 261.32C168.68 245.1 183.53 248.48 183.68 248.51L184.05 248.6L166.55 315.26L206.32 335.34C206.66 335.63 206.96 335.97 207.2 336.35C207.44 336.74 207.62 337.15 207.73 337.59C207.85 338.02 207.9 338.47 207.88 338.92C207.86 339.37 207.77 339.82 207.62 340.24L204.36 349.47C204.25 349.8 204.09 350.12 203.9 350.42C203.71 350.72 203.48 350.99 203.23 351.24C202.97 351.48 202.68 351.69 202.38 351.87C202.07 352.05 201.74 352.19 201.4 352.29C201.3 352.32 201.19 352.34 201.08 352.37C200.98 352.39 200.87 352.41 200.76 352.43C200.65 352.44 200.54 352.46 200.43 352.46C200.33 352.47 200.22 352.48 200.11 352.48Z" />
		<path id="Layer" class="shp6" d="M253.06 362.5L164.06 362.5C163.14 362.5 162.23 362.32 161.38 361.96C160.53 361.61 159.76 361.1 159.11 360.45C158.46 359.8 157.95 359.03 157.59 358.18C157.24 357.33 157.06 356.42 157.06 355.5L157.06 306.5C157.06 305.58 157.24 304.67 157.59 303.82C157.95 302.97 158.46 302.2 159.11 301.55C159.76 300.9 160.53 300.39 161.38 300.03C162.23 299.68 163.14 299.5 164.06 299.5L253.06 299.5C253.98 299.5 254.89 299.68 255.74 300.03C256.59 300.39 257.36 300.9 258.01 301.55C258.66 302.2 259.17 302.97 259.52 303.82C259.88 304.67 260.06 305.58 260.06 306.5L260.06 355.5C260.06 356.42 259.88 357.33 259.52 358.18C259.17 359.03 258.66 359.8 258.01 360.45C257.36 361.1 256.59 361.61 255.74 361.96C254.89 362.32 253.98 362.5 253.06 362.5L253.06 362.5Z" />
		<path id="Layer" class="shp7" d="M208.56 337C205.24 337 202.56 334.32 202.56 331C202.56 327.68 205.24 325 208.56 325C211.88 325 214.56 327.68 214.56 331C214.56 334.32 211.88 337 208.56 337Z" />
		<path id="Layer" class="shp4" d="M185.59 210.67C184.13 206.97 186.52 202.57 190.07 200.78C193.61 199 197.88 199.34 201.67 200.52C204.86 201.51 207.84 203.04 210.95 204.25C211.71 204.59 212.5 204.88 213.29 205.13C214.09 205.37 214.9 205.57 215.72 205.71C216.54 205.86 217.37 205.95 218.21 206C219.04 206.05 219.87 206.04 220.7 205.99C224.02 205.62 227.32 203.76 228.67 200.71C230.08 197.55 229.12 193.7 226.96 191C226.39 190.35 225.77 189.75 225.11 189.18C224.46 188.62 223.76 188.1 223.04 187.64C222.31 187.17 221.55 186.75 220.77 186.39C219.98 186.03 219.17 185.72 218.35 185.47C211.04 182.89 202.6 182.82 195.81 186.56C189.03 190.3 184.42 198.27 185.82 205.89" />
		<path id="Layer" class="shp0" d="M43.66 351.82C43.97 348.5 44.41 345.19 44.99 341.91C45.57 338.63 46.29 335.37 47.13 332.15C47.98 328.92 48.95 325.73 50.06 322.59C51.17 319.44 52.4 316.34 53.76 313.3C55.28 309.91 56.96 306.59 58.78 303.34C58.87 303.17 58.89 302.97 58.84 302.79C58.79 302.6 58.67 302.44 58.5 302.35C58.34 302.25 58.14 302.22 57.95 302.26C57.76 302.31 57.6 302.43 57.5 302.59C55.84 305.54 54.31 308.55 52.9 311.63C51.49 314.7 50.21 317.84 49.05 321.02C47.9 324.2 46.88 327.42 45.99 330.68C45.1 333.95 44.35 337.25 43.73 340.57C43.04 344.29 42.52 348.04 42.18 351.82C42.09 352.77 43.57 352.76 43.66 351.82L43.66 351.82Z" />
		<path id="Layer" class="shp6" d="M62.38 305.72C57.18 305.72 52.97 301.52 52.97 296.31C52.97 291.1 57.18 286.9 62.38 286.9C67.59 286.9 71.8 291.1 71.8 296.31C71.8 301.52 67.59 305.72 62.38 305.72Z" />
		<path id="Layer" class="shp0" d="M44.63 352.07C44.83 349.92 45.11 347.77 45.49 345.64C45.86 343.51 46.33 341.4 46.88 339.31C47.42 337.21 48.06 335.14 48.78 333.1C49.49 331.06 50.3 329.06 51.18 327.08C52.16 324.88 53.25 322.72 54.43 320.62C54.49 320.51 54.51 320.38 54.47 320.26C54.44 320.14 54.36 320.04 54.25 319.97C54.14 319.91 54.02 319.89 53.89 319.92C53.77 319.95 53.67 320.03 53.6 320.13C52.53 322.05 51.53 324 50.62 326C49.7 327.99 48.87 330.02 48.12 332.09C47.37 334.15 46.71 336.24 46.14 338.36C45.56 340.48 45.07 342.62 44.67 344.77C44.22 347.19 43.89 349.62 43.66 352.07C43.6 352.69 44.57 352.68 44.63 352.07L44.63 352.07Z" />
		<path id="Layer" class="shp6" d="M56.77 322.17C53.39 322.17 50.66 319.44 50.66 316.06C50.66 312.68 53.39 309.95 56.77 309.95C60.15 309.95 62.88 312.68 62.88 316.06C62.88 319.44 60.15 322.17 56.77 322.17Z" />
		<path id="Layer" class="shp0" d="M43.41 351.49C42.24 349.67 41.15 347.8 40.14 345.89C39.12 343.98 38.19 342.03 37.33 340.04C36.48 338.06 35.71 336.04 35.02 333.99C34.33 331.94 33.72 329.86 33.21 327.76C32.63 325.42 32.16 323.05 31.8 320.66C31.78 320.54 31.71 320.43 31.61 320.35C31.51 320.28 31.38 320.25 31.26 320.26C31.13 320.28 31.02 320.34 30.94 320.44C30.87 320.54 30.83 320.67 30.84 320.79C31.17 322.96 31.59 325.11 32.1 327.25C32.6 329.38 33.2 331.5 33.87 333.58C34.55 335.67 35.32 337.73 36.17 339.75C37.01 341.78 37.94 343.76 38.96 345.71C40.09 347.89 41.32 350.02 42.65 352.09C42.98 352.61 43.74 352.01 43.41 351.49L43.41 351.49Z" />
		<path id="Layer" class="shp6" d="M30.83 321.74C27.46 321.74 24.73 319.01 24.73 315.63C24.73 312.25 27.46 309.52 30.83 309.52C34.21 309.52 36.94 312.25 36.94 315.63C36.94 319.01 34.21 321.74 30.83 321.74Z" />
		<path id="Layer" class="shp1" d="M24.66 356.9L24.66 344.9C24.66 344.3 24.78 343.72 25 343.17C25.23 342.63 25.56 342.13 25.98 341.72C26.4 341.3 26.89 340.97 27.44 340.74C27.98 340.51 28.57 340.4 29.16 340.4L57.16 340.4C57.75 340.4 58.33 340.51 58.88 340.74C59.43 340.97 59.92 341.3 60.34 341.72C60.76 342.13 61.09 342.63 61.31 343.17C61.54 343.72 61.66 344.3 61.66 344.9L61.66 356.9C61.66 357.49 61.54 358.07 61.31 358.62C61.09 359.16 60.76 359.66 60.34 360.08C59.92 360.49 59.43 360.83 58.88 361.05C58.33 361.28 57.75 361.4 57.16 361.4L29.16 361.4C28.57 361.4 27.98 361.28 27.44 361.05C26.89 360.83 26.4 360.49 25.98 360.08C25.56 359.66 25.23 359.16 25 358.62C24.78 358.07 24.66 357.49 24.66 356.9Z" />
		<path id="Layer" class="shp8" d="M325.41 370.9C325.41 377.48 320.08 380.47 313.5 380.47C306.92 380.47 301.59 377.48 301.59 370.9C301.59 364.32 304.24 356.65 313.5 359.3C322.76 355.33 325.41 364.32 325.41 370.9Z" />
		<path id="Layer" class="shp3" d="M312.92 362.38C312.69 362.38 312.46 362.34 312.25 362.26C312.03 362.17 311.83 362.06 311.66 361.9C311.49 361.75 311.34 361.57 311.24 361.37C311.13 361.17 311.06 360.95 311.03 360.72C310.63 357.44 308.46 351.01 307.55 348.4L307.54 348.4C307.5 348.27 307.47 348.13 307.45 348C307.44 347.86 307.44 347.72 307.46 347.59C307.48 347.45 307.52 347.32 307.57 347.19C307.62 347.06 307.69 346.94 307.77 346.83C307.92 346.63 308.11 346.47 308.34 346.35C308.56 346.23 308.8 346.16 309.05 346.14C309.31 346.12 309.56 346.15 309.79 346.24C310.03 346.33 310.25 346.46 310.43 346.64C310.51 346.72 310.58 346.82 310.64 346.92C310.7 347.01 310.76 347.12 310.8 347.23C310.84 347.34 310.86 347.45 310.88 347.57C310.9 347.68 310.9 347.8 310.9 347.92C310.72 351.27 313.16 356.68 314.63 359.61C314.77 359.89 314.84 360.19 314.84 360.5C314.83 360.81 314.75 361.11 314.6 361.38C314.45 361.66 314.24 361.89 313.98 362.06C313.72 362.23 313.43 362.33 313.12 362.37C313.11 362.37 313.09 362.37 313.07 362.37C313.05 362.37 313.04 362.37 313.02 362.37C313 362.38 312.99 362.38 312.97 362.38C312.95 362.38 312.94 362.38 312.92 362.38L312.92 362.38Z" />
		<path id="Layer" class="shp3" d="M321.73 354.99C325.87 351.6 322.62 344.68 317.45 346.01C317.28 346.05 317.11 346.1 316.94 346.16C316.77 346.23 316.61 346.3 316.45 346.38C316.3 346.47 316.14 346.56 316 346.67C315.85 346.77 315.72 346.88 315.58 347C312.41 350 311.92 357.67 311.92 357.67C311.92 357.67 317.52 358.43 321.73 354.99Z" />
	</g>
</svg>